<svg width="50" height="50" viewBox="0 0 50 50" fill="none" xmlns="http://www.w3.org/2000/svg">
<rect width="50" height="50" fill="white"/>
<mask id="path-2-outside-1_85_5" maskUnits="userSpaceOnUse" x="8" y="15" width="18" height="20" fill="black">
<rect fill="white" x="8" y="15" width="18" height="20"/>
<path d="M19.528 34.408C16.24 34.408 13.48 33.688 11.296 31.792C8.944 29.728 8.32 27.04 8.32 24.712C8.32 23.08 8.824 20.248 11.128 18.136C12.856 16.552 15.136 15.592 18.712 15.592C20.2 15.592 21.088 15.688 22.192 15.832C23.104 15.952 23.872 16.168 24.592 16.24C24.856 16.264 24.952 16.384 24.952 16.528C24.952 16.72 24.88 17.008 24.832 17.848C24.784 18.64 24.808 19.96 24.76 20.44C24.736 20.8 24.688 20.992 24.472 20.992C24.28 20.992 24.232 20.8 24.232 20.464C24.208 19.72 23.896 18.88 23.296 18.256C22.504 17.416 20.632 16.768 18.424 16.768C16.336 16.768 14.968 17.296 13.912 18.256C12.16 19.864 11.704 22.144 11.704 24.472C11.704 30.184 16.048 33.016 19.264 33.016C21.4 33.016 22.696 32.776 23.656 31.672C24.064 31.216 24.376 30.52 24.472 30.088C24.544 29.704 24.592 29.608 24.784 29.608C24.952 29.608 25 29.776 25 29.968C25 30.256 24.712 32.344 24.472 33.16C24.352 33.568 24.256 33.688 23.848 33.856C22.888 34.24 21.064 34.408 19.528 34.408Z"/>
</mask>
<path d="M19.528 34.408C16.24 34.408 13.48 33.688 11.296 31.792C8.944 29.728 8.32 27.04 8.32 24.712C8.32 23.08 8.824 20.248 11.128 18.136C12.856 16.552 15.136 15.592 18.712 15.592C20.2 15.592 21.088 15.688 22.192 15.832C23.104 15.952 23.872 16.168 24.592 16.24C24.856 16.264 24.952 16.384 24.952 16.528C24.952 16.72 24.88 17.008 24.832 17.848C24.784 18.64 24.808 19.96 24.76 20.44C24.736 20.8 24.688 20.992 24.472 20.992C24.28 20.992 24.232 20.8 24.232 20.464C24.208 19.72 23.896 18.88 23.296 18.256C22.504 17.416 20.632 16.768 18.424 16.768C16.336 16.768 14.968 17.296 13.912 18.256C12.16 19.864 11.704 22.144 11.704 24.472C11.704 30.184 16.048 33.016 19.264 33.016C21.4 33.016 22.696 32.776 23.656 31.672C24.064 31.216 24.376 30.52 24.472 30.088C24.544 29.704 24.592 29.608 24.784 29.608C24.952 29.608 25 29.776 25 29.968C25 30.256 24.712 32.344 24.472 33.16C24.352 33.568 24.256 33.688 23.848 33.856C22.888 34.24 21.064 34.408 19.528 34.408Z" fill="black"/>
<path d="M11.296 31.792L11.1311 31.9799L11.1321 31.9808L11.296 31.792ZM11.128 18.136L11.2969 18.3203L11.2969 18.3203L11.128 18.136ZM22.192 15.832L22.2246 15.5841L22.2243 15.5841L22.192 15.832ZM24.592 16.24L24.5671 16.4888L24.5694 16.489L24.592 16.24ZM24.832 17.848L25.0815 17.8631L25.0816 17.8623L24.832 17.848ZM24.76 20.44L24.5111 20.4151L24.5106 20.4234L24.76 20.44ZM24.232 20.464H24.4821L24.4819 20.4559L24.232 20.464ZM23.296 18.256L23.1141 18.4275L23.1158 18.4293L23.296 18.256ZM13.912 18.256L13.7438 18.071L13.743 18.0718L13.912 18.256ZM23.656 31.672L23.4697 31.5053L23.4673 31.508L23.656 31.672ZM24.472 30.088L24.7162 30.1423L24.7177 30.1341L24.472 30.088ZM24.472 33.16L24.7118 33.2305L24.7118 33.2305L24.472 33.16ZM23.848 33.856L23.9409 34.0881L23.9432 34.0872L23.848 33.856ZM19.528 34.158C16.276 34.158 13.583 33.4463 11.4599 31.6032L11.1321 31.9808C13.377 33.9297 16.204 34.658 19.528 34.658V34.158ZM11.4609 31.6041C9.18124 29.6036 8.57 26.9965 8.57 24.712H8.07C8.07 27.0835 8.70676 29.8524 11.1311 31.9799L11.4609 31.6041ZM8.57 24.712C8.57 23.1201 9.06319 20.3679 11.2969 18.3203L10.9591 17.9517C8.58481 20.1281 8.07 23.0399 8.07 24.712H8.57ZM11.2969 18.3203C12.9713 16.7854 15.1875 15.842 18.712 15.842V15.342C15.0845 15.342 12.7407 16.3186 10.9591 17.9517L11.2969 18.3203ZM18.712 15.842C20.1856 15.842 21.0621 15.9367 22.1597 16.0799L22.2243 15.5841C21.1139 15.4393 20.2144 15.342 18.712 15.342V15.842ZM22.1594 16.0799C22.6061 16.1386 23.0182 16.221 23.4157 16.2993C23.81 16.3769 24.1934 16.4514 24.5671 16.4888L24.6169 15.9912C24.2706 15.9566 23.91 15.8871 23.5123 15.8087C23.1178 15.731 22.6899 15.6454 22.2246 15.5841L22.1594 16.0799ZM24.5694 16.489C24.6705 16.4982 24.7015 16.5228 24.7043 16.5253C24.7049 16.5259 24.703 16.524 24.7017 16.5208C24.7007 16.5183 24.702 16.5198 24.702 16.528H25.202C25.202 16.3961 25.1556 16.2581 25.0377 16.1527C24.9265 16.0532 24.7775 16.0058 24.6146 15.991L24.5694 16.489ZM24.702 16.528C24.702 16.6043 24.6875 16.6995 24.6618 16.9154C24.6373 17.1205 24.6068 17.4077 24.5824 17.8337L25.0816 17.8623C25.1052 17.4483 25.1347 17.1715 25.1582 16.9746C25.1805 16.7885 25.202 16.6437 25.202 16.528H24.702ZM24.5825 17.8329C24.558 18.2363 24.552 18.7713 24.546 19.2579C24.5399 19.7532 24.5339 20.1889 24.5112 20.4151L25.0088 20.4649C25.0341 20.2111 25.0401 19.7468 25.046 19.2641C25.052 18.7727 25.058 18.2517 25.0815 17.8631L24.5825 17.8329ZM24.5106 20.4234C24.5047 20.5105 24.4979 20.5807 24.4885 20.6377C24.479 20.6957 24.4685 20.7296 24.4602 20.7481C24.4527 20.7647 24.452 20.7578 24.4656 20.7487C24.4801 20.739 24.4879 20.742 24.472 20.742V21.242C24.5641 21.242 24.6589 21.221 24.7439 21.164C24.828 21.1077 24.8813 21.0303 24.9158 20.9539C24.979 20.814 24.9978 20.632 25.0094 20.4566L24.5106 20.4234ZM24.472 20.742C24.4678 20.742 24.4833 20.7418 24.502 20.7556C24.5183 20.7676 24.5184 20.7768 24.5121 20.7612C24.5054 20.7444 24.497 20.713 24.4909 20.6597C24.4849 20.6075 24.482 20.5429 24.482 20.464H23.982C23.982 20.633 23.9924 20.8081 24.0479 20.9468C24.0776 21.0212 24.1257 21.0994 24.205 21.1579C24.2867 21.2182 24.3802 21.242 24.472 21.242V20.742ZM24.4819 20.4559C24.456 19.6539 24.1216 18.7539 23.4762 18.0827L23.1158 18.4293C23.6704 19.0061 23.96 19.7861 23.9821 20.4721L24.4819 20.4559ZM23.4779 18.0845C23.0415 17.6216 22.3309 17.2325 21.4665 16.9587C20.5971 16.6833 19.5515 16.518 18.424 16.518V17.018C19.5045 17.018 20.4989 17.1767 21.3155 17.4353C22.1371 17.6955 22.7585 18.0504 23.1141 18.4275L23.4779 18.0845ZM18.424 16.518C16.2883 16.518 14.8555 17.0604 13.7438 18.071L14.0802 18.441C15.0805 17.5316 16.3837 17.018 18.424 17.018V16.518ZM13.743 18.0718C11.9136 19.7509 11.454 22.1191 11.454 24.472H11.954C11.954 22.1689 12.4064 19.9771 14.081 18.4402L13.743 18.0718ZM11.454 24.472C11.454 30.3326 15.9207 33.266 19.264 33.266V32.766C16.1753 32.766 11.954 30.0354 11.954 24.472H11.454ZM19.264 33.266C21.4057 33.266 22.8062 33.0302 23.8447 31.836L23.4673 31.508C22.5858 32.5218 21.3943 32.766 19.264 32.766V33.266ZM23.8423 31.8387C24.2822 31.3471 24.6119 30.6109 24.716 30.1422L24.228 30.0338C24.1401 30.4291 23.8458 31.0849 23.4697 31.5053L23.8423 31.8387ZM24.7177 30.1341C24.7354 30.0397 24.7503 29.9704 24.7649 29.9184C24.7798 29.8649 24.7909 29.8431 24.795 29.8365C24.7959 29.8351 24.7872 29.8477 24.7688 29.8561C24.7557 29.8622 24.7544 29.858 24.784 29.858V29.358C24.7177 29.358 24.6383 29.3658 24.5599 29.4019C24.4763 29.4403 24.4151 29.5009 24.371 29.5715C24.2963 29.691 24.2602 29.861 24.2263 30.0419L24.7177 30.1341ZM24.784 29.858C24.784 29.858 24.7799 29.858 24.7728 29.856C24.7656 29.8539 24.7576 29.8504 24.75 29.8453C24.7341 29.8347 24.7297 29.8245 24.7314 29.8278C24.7336 29.8321 24.7389 29.8455 24.7433 29.8718C24.7476 29.8976 24.75 29.9297 24.75 29.968H25.25C25.25 29.8592 25.2377 29.7224 25.1786 29.6042C25.1473 29.5415 25.0994 29.4773 25.0273 29.4292C24.9537 29.3802 24.8697 29.358 24.784 29.358V29.858ZM24.75 29.968C24.75 30.0214 24.7345 30.1891 24.7031 30.4429C24.6727 30.689 24.6296 31 24.5789 31.3278C24.4768 31.9886 24.3469 32.6994 24.2322 33.0895L24.7118 33.2305C24.8371 32.8046 24.9712 32.0634 25.0731 31.4042C25.1244 31.072 25.1683 30.756 25.1994 30.5041C25.2295 30.2599 25.25 30.0586 25.25 29.968H24.75ZM24.2322 33.0895C24.1735 33.2891 24.1316 33.3747 24.0805 33.4326C24.0302 33.4897 23.9492 33.544 23.7528 33.6248L23.9432 34.0872C24.1548 34 24.3258 33.9103 24.4555 33.7634C24.5844 33.6173 24.6505 33.4389 24.7118 33.2305L24.2322 33.0895ZM23.7552 33.6239C23.3063 33.8034 22.6365 33.9384 21.8749 34.0277C21.1179 34.1164 20.2878 34.158 19.528 34.158V34.658C20.3042 34.658 21.1541 34.6156 21.9331 34.5243C22.7075 34.4336 23.4297 34.2926 23.9408 34.0881L23.7552 33.6239Z" fill="black" mask="url(#path-2-outside-1_85_5)"/>
<mask id="path-4-outside-2_85_5" maskUnits="userSpaceOnUse" x="29" y="15" width="13" height="20" fill="black">
<rect fill="white" x="29" y="15" width="13" height="20"/>
<path d="M34.96 25.168V27.112C34.96 29.416 34.96 31.216 35.08 32.224C35.152 32.92 35.296 33.448 36.016 33.544C36.352 33.592 36.88 33.64 37.216 33.64C37.528 33.64 37.624 33.712 37.624 33.832C37.624 34 37.456 34.072 37.096 34.072C35.584 34.072 34.072 34 33.448 34C32.824 34 31.312 34.072 30.4 34.072C30.064 34.072 29.896 34.024 29.896 33.832C29.896 33.712 29.992 33.64 30.256 33.64C30.616 33.64 30.904 33.592 31.12 33.544C31.6 33.448 31.72 32.92 31.816 32.224C31.936 31.216 31.936 29.416 31.936 27.112V22.888C31.936 19.24 31.936 18.568 31.888 17.8C31.84 16.984 31.648 16.6 30.856 16.432C30.664 16.384 30.256 16.36 29.92 16.36C29.68 16.36 29.512 16.312 29.512 16.168C29.512 15.976 29.704 15.928 30.064 15.928C30.688 15.928 31.384 15.952 32.008 15.952C32.632 15.976 33.184 16 33.52 16C34.432 16 39.304 16 39.856 15.976C40.312 15.952 40.6 15.952 40.84 15.88C40.984 15.832 41.104 15.736 41.224 15.736C41.32 15.736 41.392 15.832 41.392 15.952C41.392 16.12 41.272 16.408 41.2 17.032C41.176 17.272 41.128 18.688 41.08 18.976C41.056 19.168 41.008 19.312 40.84 19.312C40.672 19.312 40.624 19.192 40.6 18.928C40.6 18.736 40.6 18.352 40.456 18.016C40.288 17.68 39.784 17.32 38.872 17.296L35.176 17.224C35.032 17.224 34.96 17.296 34.96 17.56V23.56C34.96 23.704 34.984 23.776 35.128 23.776L38.2 23.752C38.608 23.752 38.944 23.752 39.28 23.728C39.736 23.704 40.072 23.608 40.312 23.296C40.432 23.152 40.48 23.056 40.624 23.056C40.72 23.056 40.768 23.128 40.768 23.272C40.768 23.416 40.648 24.016 40.576 24.76C40.528 25.24 40.48 26.344 40.48 26.512C40.48 26.728 40.48 26.968 40.24 26.968C40.096 26.968 40.048 26.8 40.048 26.632C40.048 26.464 40 26.176 39.904 25.888C39.784 25.552 39.424 25.12 38.68 25.024C38.08 24.952 35.536 24.952 35.128 24.952C35.008 24.952 34.96 25 34.96 25.168Z"/>
</mask>
<path d="M34.96 25.168V27.112C34.96 29.416 34.96 31.216 35.08 32.224C35.152 32.92 35.296 33.448 36.016 33.544C36.352 33.592 36.88 33.64 37.216 33.64C37.528 33.64 37.624 33.712 37.624 33.832C37.624 34 37.456 34.072 37.096 34.072C35.584 34.072 34.072 34 33.448 34C32.824 34 31.312 34.072 30.4 34.072C30.064 34.072 29.896 34.024 29.896 33.832C29.896 33.712 29.992 33.64 30.256 33.64C30.616 33.64 30.904 33.592 31.12 33.544C31.6 33.448 31.72 32.92 31.816 32.224C31.936 31.216 31.936 29.416 31.936 27.112V22.888C31.936 19.24 31.936 18.568 31.888 17.8C31.84 16.984 31.648 16.6 30.856 16.432C30.664 16.384 30.256 16.36 29.92 16.36C29.68 16.36 29.512 16.312 29.512 16.168C29.512 15.976 29.704 15.928 30.064 15.928C30.688 15.928 31.384 15.952 32.008 15.952C32.632 15.976 33.184 16 33.52 16C34.432 16 39.304 16 39.856 15.976C40.312 15.952 40.6 15.952 40.84 15.88C40.984 15.832 41.104 15.736 41.224 15.736C41.32 15.736 41.392 15.832 41.392 15.952C41.392 16.12 41.272 16.408 41.2 17.032C41.176 17.272 41.128 18.688 41.08 18.976C41.056 19.168 41.008 19.312 40.84 19.312C40.672 19.312 40.624 19.192 40.6 18.928C40.6 18.736 40.6 18.352 40.456 18.016C40.288 17.68 39.784 17.32 38.872 17.296L35.176 17.224C35.032 17.224 34.96 17.296 34.96 17.56V23.56C34.96 23.704 34.984 23.776 35.128 23.776L38.2 23.752C38.608 23.752 38.944 23.752 39.28 23.728C39.736 23.704 40.072 23.608 40.312 23.296C40.432 23.152 40.48 23.056 40.624 23.056C40.72 23.056 40.768 23.128 40.768 23.272C40.768 23.416 40.648 24.016 40.576 24.76C40.528 25.24 40.48 26.344 40.48 26.512C40.48 26.728 40.48 26.968 40.24 26.968C40.096 26.968 40.048 26.8 40.048 26.632C40.048 26.464 40 26.176 39.904 25.888C39.784 25.552 39.424 25.12 38.68 25.024C38.08 24.952 35.536 24.952 35.128 24.952C35.008 24.952 34.96 25 34.96 25.168Z" fill="black"/>
<path d="M35.08 32.224L35.3287 32.1983L35.3282 32.1944L35.08 32.224ZM36.016 33.544L36.0514 33.2965L36.049 33.2962L36.016 33.544ZM31.12 33.544L31.071 33.2988L31.0658 33.3L31.12 33.544ZM31.816 32.224L32.0637 32.2582L32.0642 32.2536L31.816 32.224ZM31.888 17.8L31.6384 17.8147L31.6385 17.8156L31.888 17.8ZM30.856 16.432L30.7953 16.6747L30.8041 16.6766L30.856 16.432ZM32.008 15.952L32.0176 15.702H32.008V15.952ZM39.856 15.976L39.8669 16.2258L39.8691 16.2257L39.856 15.976ZM40.84 15.88L40.9119 16.1196L40.9191 16.1172L40.84 15.88ZM41.2 17.032L40.9516 17.0033L40.9512 17.0071L41.2 17.032ZM41.08 18.976L40.8332 18.9349L40.8319 18.945L41.08 18.976ZM40.6 18.928H40.35V18.9393L40.351 18.9506L40.6 18.928ZM40.456 18.016L40.6858 17.9175L40.6829 17.9108L40.6796 17.9042L40.456 18.016ZM38.872 17.296L38.8786 17.0461L38.8769 17.046L38.872 17.296ZM35.176 17.224L35.1809 16.974H35.176V17.224ZM35.128 23.776V24.026L35.13 24.026L35.128 23.776ZM38.2 23.752V23.502L38.198 23.502L38.2 23.752ZM39.28 23.728L39.2669 23.4783L39.2622 23.4786L39.28 23.728ZM40.312 23.296L40.1198 23.1358L40.1138 23.1436L40.312 23.296ZM40.576 24.76L40.8248 24.7849L40.8248 24.7841L40.576 24.76ZM39.904 25.888L40.1412 25.8089L40.1394 25.8039L39.904 25.888ZM38.68 25.024L38.712 24.776L38.7098 24.7758L38.68 25.024ZM34.71 25.168V27.112H35.21V25.168H34.71ZM34.71 27.112C34.71 29.407 34.7095 31.2268 34.8318 32.2536L35.3282 32.1944C35.2105 31.2052 35.21 29.425 35.21 27.112H34.71ZM34.8313 32.2497C34.8674 32.5983 34.9244 32.9532 35.0892 33.2351C35.2667 33.5389 35.5539 33.7346 35.983 33.7918L36.049 33.2962C35.7581 33.2574 35.6133 33.1411 35.5208 32.9829C35.4156 32.8028 35.3646 32.5457 35.3287 32.1983L34.8313 32.2497ZM35.9806 33.7915C36.324 33.8405 36.8644 33.89 37.216 33.89V33.39C36.8956 33.39 36.38 33.3435 36.0514 33.2965L35.9806 33.7915ZM37.216 33.89C37.2853 33.89 37.3355 33.8941 37.3711 33.8999C37.3886 33.9027 37.4011 33.9058 37.4096 33.9083C37.4181 33.9109 37.4214 33.9127 37.421 33.9125C37.4189 33.9114 37.4024 33.9016 37.3886 33.878C37.375 33.8549 37.374 33.8357 37.374 33.832H37.874C37.874 33.7683 37.861 33.6951 37.8197 33.6248C37.7781 33.5539 37.7181 33.5036 37.653 33.4695C37.534 33.4072 37.3807 33.39 37.216 33.39V33.89ZM37.374 33.832C37.374 33.8321 37.374 33.8276 37.3762 33.8201C37.3785 33.8124 37.3823 33.8041 37.3877 33.7965C37.3986 33.781 37.4068 33.7806 37.3927 33.7869C37.3562 33.8033 37.2687 33.822 37.096 33.822V34.322C37.2833 34.322 37.4598 34.3047 37.5973 34.2431C37.6702 34.2104 37.7429 34.1605 37.7966 34.0842C37.8517 34.0059 37.874 33.9179 37.874 33.832H37.374ZM37.096 33.822C36.3436 33.822 35.5904 33.8041 34.946 33.7861C34.3048 33.7682 33.7646 33.75 33.448 33.75V34.25C33.7554 34.25 34.2832 34.2678 34.932 34.2859C35.5776 34.3039 36.3364 34.322 37.096 34.322V33.822ZM33.448 33.75C33.1309 33.75 32.5913 33.7682 32.0241 33.7861C31.4532 33.8042 30.8513 33.822 30.4 33.822V34.322C30.8607 34.322 31.4708 34.3038 32.0399 34.2859C32.6127 34.2678 33.1411 34.25 33.448 34.25V33.75ZM30.4 33.822C30.3209 33.822 30.2583 33.8191 30.2091 33.8133C30.1586 33.8073 30.1321 33.7992 30.1205 33.7942C30.1111 33.7902 30.1232 33.7934 30.1355 33.8118C30.148 33.8305 30.146 33.8429 30.146 33.832H29.646C29.646 33.9171 29.665 34.0075 29.7195 34.0892C29.7738 34.1706 29.8489 34.2218 29.9235 34.2538C30.0595 34.3121 30.2325 34.322 30.4 34.322V33.822ZM30.146 33.832C30.146 33.8358 30.145 33.8523 30.1337 33.8728C30.1219 33.8939 30.1073 33.9045 30.1023 33.9074C30.0993 33.9091 30.107 33.904 30.1343 33.8989C30.1612 33.8938 30.2005 33.89 30.256 33.89V33.39C30.1106 33.39 29.9666 33.4081 29.8517 33.4746C29.7897 33.5105 29.7346 33.5616 29.6966 33.63C29.659 33.6977 29.646 33.7682 29.646 33.832H30.146ZM30.256 33.89C30.6389 33.89 30.9457 33.8388 31.1742 33.788L31.0658 33.3C30.8623 33.3452 30.5931 33.39 30.256 33.39V33.89ZM31.169 33.7891C31.5122 33.7205 31.7168 33.4906 31.8407 33.21C31.9587 32.9426 32.016 32.6034 32.0637 32.2582L31.5683 32.1898C31.52 32.5406 31.4693 32.8134 31.3833 33.008C31.3032 33.1894 31.2078 33.2715 31.071 33.2989L31.169 33.7891ZM32.0642 32.2536C32.1865 31.2268 32.186 29.407 32.186 27.112H31.686C31.686 29.425 31.6855 31.2052 31.5678 32.1944L32.0642 32.2536ZM32.186 27.112V22.888H31.686V27.112H32.186ZM32.186 22.888C32.186 19.2452 32.1861 18.5624 32.1375 17.7844L31.6385 17.8156C31.6859 18.5736 31.686 19.2348 31.686 22.888H32.186ZM32.1376 17.7853C32.1132 17.3703 32.0513 17.0094 31.8559 16.7298C31.6523 16.4383 31.3361 16.2783 30.9079 16.1874L30.8041 16.6766C31.1679 16.7537 31.3437 16.8697 31.4461 17.0162C31.5567 17.1746 31.6148 17.4137 31.6384 17.8147L32.1376 17.7853ZM30.9166 16.1895C30.6916 16.1332 30.2557 16.11 29.92 16.11V16.61C30.2563 16.61 30.6364 16.6348 30.7954 16.6745L30.9166 16.1895ZM29.92 16.11C29.8677 16.11 29.824 16.1073 29.7888 16.1025C29.7527 16.0976 29.7319 16.0913 29.7222 16.0872C29.7124 16.0832 29.7239 16.0857 29.7384 16.104C29.7558 16.1261 29.762 16.1515 29.762 16.168H29.262C29.262 16.2565 29.2892 16.3419 29.3456 16.4135C29.3991 16.4813 29.4676 16.5228 29.5298 16.5488C29.6487 16.5983 29.7913 16.61 29.92 16.61V16.11ZM29.762 16.168C29.762 16.1638 29.7621 16.1802 29.7476 16.1995C29.7351 16.2163 29.7258 16.2159 29.7432 16.2091C29.7617 16.202 29.7958 16.1933 29.853 16.187C29.9091 16.1809 29.9786 16.178 30.064 16.178V15.678C29.884 15.678 29.7036 15.6883 29.5628 15.7429C29.4872 15.7721 29.4074 15.8197 29.3476 15.8995C29.2859 15.9818 29.262 16.0762 29.262 16.168H29.762ZM30.064 16.178C30.3733 16.178 30.701 16.1839 31.0315 16.19C31.361 16.1959 31.6933 16.202 32.008 16.202V15.702C31.6987 15.702 31.371 15.696 31.0405 15.69C30.711 15.684 30.3787 15.678 30.064 15.678V16.178ZM31.9984 16.2018C32.6183 16.2257 33.1777 16.25 33.52 16.25V15.75C33.1903 15.75 32.6457 15.7263 32.0176 15.7022L31.9984 16.2018ZM33.52 16.25C34.4261 16.25 39.3077 16.2501 39.8669 16.2258L39.8451 15.7262C39.3003 15.7499 34.4379 15.75 33.52 15.75V16.25ZM39.8691 16.2257C40.2996 16.203 40.6342 16.2027 40.9118 16.1195L40.7682 15.6405C40.5658 15.7013 40.3244 15.701 39.8429 15.7263L39.8691 16.2257ZM40.9191 16.1172C41.0104 16.0867 41.1019 16.0379 41.1485 16.0157C41.2105 15.9862 41.2255 15.986 41.224 15.986V15.486C41.1025 15.486 40.9975 15.5338 40.9335 15.5643C40.8541 15.6021 40.8136 15.6253 40.7609 15.6428L40.9191 16.1172ZM41.224 15.986C41.2052 15.986 41.1872 15.981 41.1725 15.9731C41.1583 15.9655 41.15 15.9568 41.1458 15.9514C41.1382 15.9415 41.142 15.9402 41.142 15.952H41.642C41.642 15.7589 41.5151 15.486 41.224 15.486V15.986ZM41.142 15.952C41.142 15.9677 41.1389 15.9968 41.1272 16.0537C41.1156 16.1105 41.0999 16.175 41.0793 16.2654C41.0391 16.4415 40.9891 16.6791 40.9516 17.0033L41.4484 17.0607C41.4829 16.7609 41.5289 16.5425 41.5667 16.3766C41.5851 16.296 41.6039 16.218 41.617 16.1541C41.6301 16.0902 41.642 16.0203 41.642 15.952H41.142ZM40.9512 17.0071C40.9384 17.1354 40.9199 17.5615 40.8993 17.9735C40.8778 18.403 40.8544 18.8092 40.8334 18.9349L41.3266 19.0171C41.3536 18.8548 41.3782 18.409 41.3987 17.9985C41.4201 17.5705 41.4376 17.1686 41.4488 17.0569L40.9512 17.0071ZM40.8319 18.945C40.8266 18.9876 40.8207 19.0208 40.814 19.0468C40.8071 19.0732 40.8013 19.0846 40.7996 19.0874C40.799 19.0884 40.8048 19.0788 40.8197 19.0701C40.835 19.0613 40.8452 19.062 40.84 19.062V19.562C40.9188 19.562 40.998 19.5447 41.0703 19.5029C41.1422 19.4612 41.193 19.4036 41.2284 19.3446C41.2935 19.2361 41.3157 19.106 41.3281 19.007L40.8319 18.945ZM40.84 19.062C40.8274 19.062 40.8364 19.0598 40.8537 19.0691C40.8729 19.0794 40.8819 19.0929 40.8831 19.095C40.8831 19.095 40.8812 19.0917 40.8783 19.0833C40.8754 19.0749 40.8719 19.0629 40.8683 19.0463C40.8609 19.0123 40.8546 18.9668 40.849 18.9054L40.351 18.9506C40.3629 19.0809 40.383 19.2276 40.4489 19.343C40.4861 19.4081 40.5401 19.4681 40.6163 19.5091C40.6906 19.5492 40.7686 19.562 40.84 19.562V19.062ZM40.85 18.928C40.85 18.7403 40.8527 18.3069 40.6858 17.9175L40.2262 18.1145C40.3473 18.3971 40.35 18.7317 40.35 18.928H40.85ZM40.6796 17.9042C40.456 17.4569 39.8456 17.0715 38.8786 17.0461L38.8654 17.5459C39.7224 17.5685 40.12 17.9031 40.2324 18.1278L40.6796 17.9042ZM38.8769 17.046L35.1809 16.974L35.1711 17.474L38.8671 17.546L38.8769 17.046ZM35.176 16.974C35.0617 16.974 34.9113 17.005 34.8098 17.1488C34.7263 17.267 34.71 17.4191 34.71 17.56H35.21C35.21 17.504 35.2139 17.4681 35.2184 17.4464C35.2229 17.4245 35.2261 17.4261 35.2182 17.4372C35.214 17.4431 35.2077 17.4503 35.199 17.4571C35.1904 17.4639 35.1819 17.4684 35.1749 17.4713C35.1622 17.4764 35.1591 17.474 35.176 17.474V16.974ZM34.71 17.56V23.56H35.21V17.56H34.71ZM34.71 23.56C34.71 23.6271 34.7111 23.7543 34.782 23.8607C34.8732 23.9974 35.0186 24.026 35.128 24.026V23.526C35.1106 23.526 35.1166 23.5235 35.1338 23.5304C35.1434 23.5342 35.1553 23.5405 35.1677 23.5504C35.1803 23.5604 35.1904 23.5719 35.198 23.5833C35.2125 23.605 35.2137 23.6202 35.2126 23.6134C35.2115 23.6065 35.21 23.591 35.21 23.56H34.71ZM35.13 24.026L38.202 24.002L38.198 23.502L35.126 23.526L35.13 24.026ZM38.2 24.002C38.6061 24.002 38.9513 24.0021 39.2978 23.9774L39.2622 23.4786C38.9367 23.5019 38.6099 23.502 38.2 23.502V24.002ZM39.2931 23.9777C39.7745 23.9523 40.2031 23.8476 40.5102 23.4484L40.1138 23.1436C39.9409 23.3684 39.6975 23.4557 39.2669 23.4783L39.2931 23.9777ZM40.5041 23.456C40.5351 23.4188 40.5668 23.3781 40.5856 23.3548C40.6081 23.327 40.6207 23.3131 40.6296 23.3048C40.6368 23.298 40.6359 23.3005 40.6287 23.3035C40.6207 23.3069 40.617 23.306 40.624 23.306V22.806C40.4802 22.806 40.3731 22.8602 40.2884 22.9392C40.2523 22.9729 40.2214 23.01 40.1966 23.0407C40.1682 23.0759 40.1489 23.1012 40.1199 23.136L40.5041 23.456ZM40.624 23.306C40.6166 23.306 40.598 23.3045 40.5752 23.2931C40.5514 23.2812 40.5343 23.2641 40.524 23.2487C40.5148 23.2349 40.5139 23.2268 40.515 23.2317C40.516 23.2365 40.518 23.2491 40.518 23.272H41.018C41.018 23.1801 41.0041 23.0675 40.94 22.9713C40.864 22.8573 40.7448 22.806 40.624 22.806V23.306ZM40.518 23.272C40.518 23.2871 40.5136 23.3333 40.5006 23.4259C40.4884 23.5125 40.4715 23.6216 40.4517 23.7541C40.4126 24.0163 40.3638 24.3574 40.3272 24.7359L40.8248 24.7841C40.8602 24.4186 40.9074 24.0877 40.9463 23.8279C40.9655 23.6994 40.9831 23.585 40.9957 23.4954C41.0074 23.4117 41.018 23.3289 41.018 23.272H40.518ZM40.3272 24.7351C40.2784 25.2232 40.23 26.3355 40.23 26.512H40.73C40.73 26.3525 40.7776 25.2568 40.8248 24.7849L40.3272 24.7351ZM40.23 26.512C40.23 26.5677 40.2299 26.6142 40.2269 26.6567C40.2238 26.6997 40.2185 26.7255 40.2137 26.7395C40.2093 26.752 40.2103 26.7413 40.2266 26.7287C40.245 26.7146 40.2567 26.718 40.24 26.718V27.218C40.3433 27.218 40.445 27.1914 40.5309 27.1255C40.6147 27.0612 40.6607 26.977 40.6863 26.9025C40.7329 26.7675 40.73 26.6065 40.73 26.512H40.23ZM40.24 26.718C40.2562 26.718 40.2788 26.7239 40.2983 26.7384C40.3147 26.7506 40.3183 26.7609 40.3157 26.7555C40.3132 26.7501 40.3082 26.7367 40.3042 26.7131C40.3002 26.6902 40.298 26.6626 40.298 26.632H39.798C39.798 26.7332 39.8115 26.8596 39.8643 26.9705C39.9222 27.0921 40.0436 27.218 40.24 27.218V26.718ZM40.298 26.632C40.298 26.4299 40.243 26.1145 40.1412 25.8089L39.6668 25.9671C39.757 26.2375 39.798 26.4981 39.798 26.632H40.298ZM40.1394 25.8039C39.9888 25.3822 39.5522 24.8845 38.712 24.7761L38.648 25.2719C39.2958 25.3555 39.5792 25.7218 39.6686 25.9721L40.1394 25.8039ZM38.7098 24.7758C38.3931 24.7378 37.5905 24.7199 36.835 24.711C36.0714 24.702 35.3321 24.702 35.128 24.702V25.202C35.3319 25.202 36.0686 25.202 36.829 25.211C37.5975 25.2201 38.3669 25.2382 38.6502 25.2722L38.7098 24.7758ZM35.128 24.702C35.0431 24.702 34.9045 24.7176 34.8055 24.8387C34.7197 24.9436 34.71 25.0758 34.71 25.168H35.21C35.21 25.1362 35.2124 25.1219 35.2132 25.1186C35.2138 25.1161 35.2104 25.1334 35.1925 25.1553C35.1835 25.1663 35.1726 25.1762 35.1605 25.1842C35.1487 25.1921 35.1379 25.1967 35.1302 25.1993C35.1165 25.2039 35.1124 25.202 35.128 25.202V24.702Z" fill="black" mask="url(#path-4-outside-2_85_5)"/>
</svg>
